<?xml version="1.0" standalone="no"?><!DOCTYPE svg PUBLIC "-//W3C//DTD SVG 1.1//EN" "http://www.w3.org/Graphics/SVG/1.1/DTD/svg11.dtd"><svg t="1665039057722" class="icon" viewBox="0 0 1024 1024" version="1.1" xmlns="http://www.w3.org/2000/svg" p-id="10936" xmlns:xlink="http://www.w3.org/1999/xlink" width="200" height="200"><path d="M883 404.3c-10.2 5.8-22.8 5.8-33 0s-16.3-16.5-16.1-27.9V179.8c0-25.7-21.9-46.5-48.9-46.5H233.5c-27 0-48.9 20.9-48.9 46.5v664c0 25.7 21.9 46.6 48.9 46.6h119.6c18 0 32.6 14.1 32.6 31.6 0 17.4-14.6 31.6-32.6 31.6H230.8c-61.6-1.4-111.3-50.1-111.3-109.7v-664c0-60.5 51.2-109.7 114.1-109.7H785c62.9 0 114.1 49.2 114.1 109.7v196.6c0.3 11.3-5.9 22-16.1 27.8zM421.3 705.8H270.9c-11.8 0.2-22.8-5.7-28.8-15.6-6-9.9-6-22.1 0-32 6-9.9 17-15.8 28.8-15.6h150.4c11.8-0.2 22.8 5.7 28.8 15.6 6 9.9 6 22.1 0 32-6 9.9-17 15.9-28.8 15.6zM242.1 311.1c-6-9.9-6-22.1 0-32 6-9.9 17-15.8 28.8-15.6h478.7c11.8-0.2 22.8 5.7 28.8 15.6 6 9.9 6 22.1 0 32-6 9.9-17 15.8-28.8 15.6H270.9c-11.8 0.3-22.8-5.7-28.8-15.6z m329.6 205.2H270.9c-11.8 0.3-22.8-5.7-28.8-15.6-6-9.9-6-22.1 0-32 6-9.9 17-15.8 28.8-15.6h300.8c17.7 0.4 31.9 14.4 31.9 31.6 0 17.2-14.2 31.2-31.9 31.6zM593.5 810.6l257-257c12.5-12.5 32.8-12.5 45.4 0 12.5 12.5 12.5 32.8 0 45.4l-257 257c-12.5 12.5-32.8 12.5-45.3 0-12.6-12.5-12.6-32.8-0.1-45.4z" fill="#ffffff" p-id="10937"></path></svg>