<?xml version="1.0" standalone="no"?><!DOCTYPE svg PUBLIC "-//W3C//DTD SVG 1.1//EN" "http://www.w3.org/Graphics/SVG/1.1/DTD/svg11.dtd"><svg t="1665049647658" class="icon" viewBox="0 0 1024 1024" version="1.1" xmlns="http://www.w3.org/2000/svg" p-id="55924" xmlns:xlink="http://www.w3.org/1999/xlink" width="200" height="200"><path d="M96 960a32 32 0 0 1-32-32l0.512-5.76L64 916.48V608a32 32 0 0 1 63.488-5.76L128 608V896h128v-160a32 32 0 0 1 63.488-5.76L320 736V896h128V544a32 32 0 0 1 63.488-5.76L512 544V896h128v-224a32 32 0 0 1 63.488-5.76l0.512 5.76V896h128V480a32 32 0 0 1 63.488-5.76L896 480V896h32a32 32 0 0 1 5.76 63.488L928 960h-832zM945.728 69.376a32 32 0 0 1 11.648 39.296l-2.752 5.12-256 384a32 32 0 0 1-44.736 8.64l-4.48-3.84-165.952-165.888L313.6 563.2a32 32 0 0 1-38.464 10.112l-4.864-2.688-192-128a32 32 0 0 1 30.4-56l5.12 2.752 166.784 111.168L454.4 268.8a32 32 0 0 1 43.328-7.424l4.928 3.968 164.288 164.352 234.432-351.424a32 32 0 0 1 44.352-8.896z" p-id="55925" fill="#ffffff"></path></svg>