<?xml version="1.0" standalone="no"?><!DOCTYPE svg PUBLIC "-//W3C//DTD SVG 1.1//EN" "http://www.w3.org/Graphics/SVG/1.1/DTD/svg11.dtd"><svg t="1665125202843" class="icon" viewBox="0 0 1024 1024" version="1.1" xmlns="http://www.w3.org/2000/svg" p-id="4933" xmlns:xlink="http://www.w3.org/1999/xlink" width="200" height="200"><path d="M763.733333 979.2H260.266667c-53.333333 0-96-42.666667-96-96V576h693.333333v305.066667c0 53.333333-42.666667 96-93.866667 98.133333zM230.4 640v243.2c0 17.066667 14.933333 32 32 32h501.333333c17.066667 0 32-14.933333 32-32V640H230.4z" p-id="4934" fill="#ffffff"></path><path d="M789.333333 640H234.666667c-76.8 0-138.666667-61.866667-138.666667-138.666667S157.866667 362.666667 234.666667 362.666667h68.266666c40.533333 0 74.666667-34.133333 74.666667-74.666667V179.2c2.133333-72.533333 64-130.133333 138.666667-128 70.4 2.133333 125.866667 57.6 128 128v108.8c0 40.533333 34.133333 74.666667 74.666666 74.666667H789.333333c76.8 0 138.666667 61.866667 138.666667 138.666666S866.133333 640 789.333333 640zM234.666667 426.666667c-40.533333 0-74.666667 34.133333-74.666667 74.666666S194.133333 576 234.666667 576h554.666666c40.533333 0 74.666667-34.133333 74.666667-74.666667S832 426.666667 789.333333 426.666667h-70.4c-76.8 0-138.666667-61.866667-138.666666-138.666667V179.2c-2.133333-38.4-34.133333-68.266667-72.533334-66.133333-34.133333 2.133333-64 29.866667-66.133333 66.133333v108.8c0 76.8-61.866667 138.666667-138.666667 138.666667H234.666667zM665.6 979.2c-17.066667 0-32-14.933333-32-32v-125.866667c0-17.066667 14.933333-32 32-32s32 14.933333 32 32v125.866667c0 17.066667-14.933333 32-32 32zM512 979.2c-17.066667 0-32-14.933333-32-32v-125.866667c0-17.066667 14.933333-32 32-32s32 14.933333 32 32v125.866667c0 17.066667-14.933333 32-32 32zM358.4 979.2c-17.066667 0-32-14.933333-32-32v-125.866667c0-17.066667 14.933333-32 32-32s32 14.933333 32 32v125.866667c0 17.066667-14.933333 32-32 32z" p-id="4935" fill="#ffffff"></path></svg>