<?xml version="1.0" standalone="no"?><!DOCTYPE svg PUBLIC "-//W3C//DTD SVG 1.1//EN" "http://www.w3.org/Graphics/SVG/1.1/DTD/svg11.dtd"><svg t="1664954251172" class="icon" viewBox="0 0 1024 1024" version="1.1" xmlns="http://www.w3.org/2000/svg" p-id="19288" xmlns:xlink="http://www.w3.org/1999/xlink" width="200" height="200"><path d="M435.92704 129.28v58.88l-24.27904 10.24-39.63904-40.96a20.03968 20.03968 0 0 0-28.12928 0L278.6816 225.28c-7.66976 7.68-7.66976 19.2 0 26.88l39.63904 40.96-10.22976 25.6H245.4528c-10.22976 0-19.17952 8.96-19.17952 19.2v66.56h38.3488v-47.36h56.24832c7.68 0 15.34976-5.12 17.88928-11.52l20.48-49.92c2.56-7.68 1.26976-15.36-3.85024-20.48l-35.7888-37.12 38.3488-39.68 34.51904 35.84c5.12 5.12 14.06976 7.68 20.45952 3.84l48.57856-20.49024c7.65952-2.56 11.49952-10.22976 11.49952-17.90976v-52.49024h53.69856v51.2c0 7.69024 5.10976 14.09024 11.50976 17.92l48.57856 21.77024c7.65952 3.82976 15.32928 1.28 21.72928-3.84l34.51904-35.84 38.3488 39.68-35.7888 35.84c-5.12 5.12-6.4 12.8-3.84 20.48l19.17952 49.92c2.56 7.68 10.22976 12.8 17.88928 12.8h57.5488V404.48h38.33856V337.92c0-10.24-8.94976-19.2-19.16928-19.2h-62.64832l-10.22976-26.88 39.64928-40.96c7.65952-7.69024 7.65952-19.2 0-26.89024L657.1008 156.16a20.06016 20.06016 0 0 0-28.12928 0l-39.6288 40.96-24.28928-10.24v-57.6c0-10.24-8.96-19.2-19.17952-19.2h-92.0576c-8.94976 0-17.89952 7.68-17.89952 19.2" fill="#FFA950" p-id="19289"></path><path d="M608.512 404.48v-19.2c0-57.6-47.3088-104.96-104.82688-104.96-57.52832 0-104.83712 47.36-104.83712 104.96V404.48h38.3488v-19.2c0-35.84 29.39904-66.56 66.47808-66.56 35.7888 0 66.48832 29.44 66.48832 66.56V404.48h38.3488z" fill="#FFA950" p-id="19290"></path><path d="M1009.94048 252.16c0-10.24-8.96-19.2-19.18976-19.2h-89.47712c-8.94976 0-15.36 5.12-17.89952 12.8l-61.35808 197.12c-6.38976-2.56-14.05952-3.84-21.73952-3.84H218.59328c-16.60928 0-31.9488 6.4-39.6288 17.92-7.66976 10.24-10.22976 23.04-6.38976 34.56l72.87808 254.72c-19.17952 14.08-30.68928 37.12-30.68928 61.44 0 42.24 34.52928 76.8 76.71808 76.8 31.9488 0 60.07808-19.2 70.30784-48.64H658.3808c11.49952 28.16 38.3488 48.64 70.30784 48.64 42.1888 0 76.70784-34.56 76.70784-76.8 0-25.6-12.78976-48.64-31.95904-62.72L846.30528 491.52v-2.56c0-1.28 1.28-1.28 1.28-2.56l67.74784-215.04h75.4176c11.50976 0 19.18976-7.68 19.18976-19.2z" fill="#0E5DA1" p-id="19291"></path><path d="M737.6384 730.88c-11.50976-1.28-24.29952 0-34.52928 3.84L632.80128 476.16h167.4752c6.38976 0 8.94976 2.56 8.94976 3.82976l-71.58784 250.89024zM218.59328 477.44h101.00736l86.92736 320h-39.6288v-1.28c0-3.84-1.28-7.68-2.56-12.8v-1.28c-1.28-3.84-2.56-7.68-5.12-11.52s-3.82976-7.68-6.38976-10.24c0 0 0-1.28-1.28-1.28-2.56-2.56-5.10976-6.4-7.66976-8.96l-1.28-1.28c-2.56-2.56-6.4-5.12-8.96-6.4l-1.28-1.28a38.1952 38.1952 0 0 0-10.20928-5.12h-1.28L309.3504 732.16h-1.28c-3.84-1.28-8.96-1.28-12.78976-1.28h-10.22976l-72.86784-250.88c-2.52928 0 0.01024-2.56 6.4-2.56zM447.44704 797.44l-86.9376-320h97.16736l86.91712 320zM584.22272 797.44l-86.91712-320h97.14688l76.70784 281.6c-8.96 11.52-14.05952 24.32-16.60928 38.4h-70.32832zM729.96864 846.08a37.31456 37.31456 0 0 1-37.07904-32c0-2.56-1.28-3.84-1.28-6.4 0-11.52 5.12-20.48 12.77952-28.16 5.12-5.12 14.06976-10.24 25.57952-10.24 5.10976 0 10.20928 1.28 14.04928 2.56 14.06976 6.4 24.29952 20.48 24.29952 35.84 0 21.76-17.89952 38.4-38.3488 38.4zM291.4816 846.08c-21.73952 0-38.36928-16.64-38.36928-38.4 0-15.36 8.96-29.44 23.01952-34.56a33.9968 33.9968 0 0 1 15.34976-3.84c21.72928 0 38.3488 16.64 38.3488 38.4 0 2.56 0 3.84-1.28 6.4a37.30432 37.30432 0 0 1-37.0688 32z" fill="#DAE6EE" p-id="19292"></path><path d="M168.74496 185.6L140.62592 158.72c-10.24 10.24-20.45952 21.76-29.40928 33.28l29.40928 24.32c10.21952-10.24 19.16928-20.48 28.11904-30.72M85.64736 229.12c-8.94976 14.08-17.88928 29.44-26.84928 43.52l34.51904 17.92c7.68-14.08 15.34976-28.16 24.29952-40.96l-31.96928-20.48zM0 512c0 67.84 12.78976 133.12 38.3488 195.84L74.1376 693.76c-24.27904-57.6-35.7888-117.76-35.7888-180.48H0V512zM141.89568 807.68l-29.39904 24.32c56.23808 70.4 130.4064 124.16 213.49376 157.44l14.05952-35.84a477.66528 477.66528 0 0 1-198.144-145.92M511.36512 985.6V1024c81.8176 0 163.6352-20.48 236.50304-57.6L729.96864 931.84c-66.47808 35.84-141.89568 53.76-218.61376 53.76M768.3072 910.08L788.77696 942.08c17.88928-11.52 35.79904-24.32 51.13856-38.4l-24.28928-29.44a328.05888 328.05888 0 0 1-47.3088 35.84M855.2448 837.12l28.12928 26.89024C894.8736 852.48 905.1136 839.68 915.33312 826.88l-30.67904-23.04a364.16512 364.16512 0 0 1-29.39904 33.28M984.3712 512c0 85.76-23.01952 170.24-66.48832 243.2l33.23904 19.2C998.44096 695.04 1024 604.16 1024 512h-39.6288zM511.36512 38.4V0C395.008 0 281.2416 39.68 190.464 113.92L214.77376 143.36C299.15136 75.52 403.968 38.4 511.35488 38.4" fill="#0E5DA1" p-id="19293"></path><path d="M503.68512 318.4128c-37.08928 0-66.48832 30.72-66.48832 66.56v19.2H570.1632v-19.2c0-37.12-30.68928-66.56-66.47808-66.56" fill="#FFE7CF" p-id="19294"></path><path d="M678.84032 356.8128c-7.66976 0-15.33952-5.12-17.89952-12.8l-19.16928-49.92c-2.56-7.68-1.28-15.36 3.81952-20.48l35.7888-35.84-38.33856-39.68-34.52928 35.84c-6.37952 5.12-14.04928 7.68-21.72928 3.84l-48.57856-21.76c-6.38976-3.84-11.48928-10.24-11.48928-17.92v-51.2h-53.69856v52.48c0 7.68-3.84 15.34976-11.50976 17.92l-48.57856 20.48c-6.4 3.84-15.33952 1.28-20.44928-3.84l-34.52928-35.84-38.3488 39.68 35.7888 37.12c5.12 5.12 6.38976 12.8 3.82976 20.48l-20.44928 49.92c-2.54976 6.4-10.22976 11.52-17.89952 11.52h-56.23808v47.36H398.848v-19.2c0-57.6 47.3088-104.96 104.83712-104.96 57.51808 0 104.82688 47.36 104.82688 104.96v19.2H736.3584v-47.36h-57.51808z" fill="#FFE7CF" p-id="19295"></path></svg>