<?xml version="1.0" standalone="no"?><!DOCTYPE svg PUBLIC "-//W3C//DTD SVG 1.1//EN" "http://www.w3.org/Graphics/SVG/1.1/DTD/svg11.dtd"><svg t="1664879674639" class="icon" viewBox="0 0 1024 1024" version="1.1" xmlns="http://www.w3.org/2000/svg" p-id="2219" xmlns:xlink="http://www.w3.org/1999/xlink" width="200" height="200"><path d="M921.6 952H102.4c-14.4 0-27.2-6.4-36.8-17.6-9.6-11.2-12.8-25.6-9.6-40l148.8-800c4.8-22.4 24-40 48-40h523.2c22.4 0 43.2 16 48 40l148.8 800c3.2 14.4-1.6 28.8-9.6 40-14.4 11.2-27.2 17.6-41.6 17.6z m-670.4-864c-8 0-14.4 4.8-16 12.8l-148.8 800c-1.6 6.4 1.6 11.2 3.2 12.8s6.4 6.4 12.8 6.4h819.2c6.4 0 11.2-3.2 12.8-6.4s4.8-6.4 3.2-12.8l-148.8-800c-1.6-8-8-12.8-16-12.8H251.2z" p-id="2220" fill="#ffffff"></path><path d="M672 177.6c-8 0-14.4-4.8-16-12.8-1.6-8-8-12.8-16-12.8H374.4c-8 0-14.4 4.8-16 12.8-1.6 8-9.6 14.4-19.2 12.8-8-1.6-14.4-9.6-12.8-19.2 4.8-22.4 24-40 46.4-40H640c22.4 0 43.2 16 48 40 1.6 8-4.8 17.6-12.8 19.2H672z" p-id="2221" fill="#ffffff"></path><path d="M756.8 878.4H161.6c-12.8 0-24-4.8-30.4-14.4-8-9.6-11.2-20.8-8-33.6l124.8-659.2c3.2-19.2 20.8-33.6 40-33.6h48c8 0 12.8 6.4 12.8 12.8s-6.4 12.8-12.8 12.8h-49.6c-6.4 0-12.8 4.8-12.8 11.2L148.8 836.8c-1.6 4.8 1.6 9.6 3.2 11.2 1.6 1.6 4.8 4.8 9.6 4.8h577.6l20.8-43.2 51.2 12.8-19.2-56 68.8 33.6-12.8-59.2L740.8 176c-1.6-6.4-6.4-11.2-12.8-11.2H672c-8 0-12.8-6.4-12.8-12.8s6.4-12.8 12.8-12.8h56c19.2 0 36.8 14.4 40 33.6L875.2 736l24 113.6-59.2-30.4 12.8 40-76.8-19.2-19.2 38.4z" p-id="2222" fill="#ffffff"></path><path d="M683.2 312h-368c-9.6 0-16-6.4-16-16s6.4-16 16-16h368c9.6 0 16 6.4 16 16s-6.4 16-16 16z" p-id="2223" fill="#ffffff"></path><path d="M603.2 404.8h-304c-9.6 0-16-6.4-16-16s6.4-16 16-16h304c9.6 0 16 6.4 16 16s-6.4 16-16 16z" p-id="2224" fill="#ffffff"></path><path d="M699.2 496H288c-9.6 0-16-6.4-16-16s6.4-16 16-16h411.2c9.6 0 16 6.4 16 16s-6.4 16-16 16z" p-id="2225" fill="#ffffff"></path><path d="M691.2 588.8h-416c-9.6 0-16-6.4-16-16s6.4-16 16-16h416c9.6 0 16 6.4 16 16s-6.4 16-16 16z" p-id="2226" fill="#ffffff"></path><path d="M651.2 680h-400c-9.6 0-16-6.4-16-16s6.4-16 16-16h400c9.6 0 16 6.4 16 16s-6.4 16-16 16z" p-id="2227" fill="#ffffff"></path></svg>