<?xml version="1.0" encoding="UTF-8"?>
<svg width="24px" height="24px" viewBox="0 0 24 24" version="1.1" xmlns="http://www.w3.org/2000/svg" xmlns:xlink="http://www.w3.org/1999/xlink">
    <!-- Generator: Sketch 63 (92445) - https://sketch.com -->
    <title>菜单</title>
    <desc>Created with Sketch.</desc>
    <defs>
        <linearGradient x1="0%" y1="0%" x2="94.619099%" y2="88.1163896%" id="linearGradient-1">
            <stop stop-color="#5DE4FF" offset="0%"></stop>
            <stop stop-color="#649AF3" offset="37.661432%"></stop>
            <stop stop-color="#AE2EF8" offset="100%"></stop>
        </linearGradient>
    </defs>
    <g id="链游手机版" stroke="none" stroke-width="1" fill="none" fill-rule="evenodd">
        <g id="主页" transform="translate(-335.000000, -59.000000)" fill-rule="nonzero">
            <g id="菜单" transform="translate(334.000000, 58.000000)">
                <rect id="矩形" fill="#000000" opacity="0" x="0" y="0" width="26" height="26"></rect>
                <path d="M9.581,2.652 C10.439,2.652 11.141,3.354 11.141,4.212 L11.141,10.491 C11.128,11.349 10.439,12.038 9.568,12.038 L3.302,12.038 C2.444,12.038 1.742,11.336 1.742,10.478 L1.742,4.212 C1.742,3.354 2.444,2.652 3.302,2.652 L9.581,2.652 Z M9.581,4.212 L3.302,4.212 L3.302,10.491 L9.581,10.491 L9.581,4.212 Z" id="形状结合" fill="#FFFFFF"></path>
                <path d="M18.785,1.352 C19.201,1.352 19.591,1.508 19.89,1.807 L24.323,6.24 C24.622,6.539 24.778,6.929 24.778,7.345 C24.778,7.761 24.622,8.151 24.323,8.45 L19.89,12.883 C19.591,13.182 19.201,13.338 18.785,13.338 C18.369,13.338 17.979,13.182 17.68,12.883 L13.247,8.45 C12.948,8.151 12.792,7.761 12.792,7.345 C12.792,6.929 12.948,6.539 13.247,6.24 L17.68,1.807 C17.979,1.508 18.369,1.352 18.785,1.352 Z M18.785,2.899 L14.352,7.332 L18.785,11.765 L23.218,7.332 L18.785,2.899 Z" id="形状结合" fill="url(#linearGradient-1)"></path>
                <path d="M9.581,14.989 C10.439,14.989 11.141,15.691 11.141,16.549 L11.141,22.828 C11.128,23.699 10.439,24.388 9.568,24.388 L3.302,24.388 C2.444,24.388 1.742,23.686 1.742,22.828 L1.742,16.549 C1.742,15.691 2.444,14.989 3.302,14.989 L9.581,14.989 Z M9.581,16.562 L3.302,16.562 L3.302,22.841 L9.581,22.841 L9.581,16.562 Z" id="形状结合" fill="#FFFFFF"></path>
                <path d="M21.918,14.989 C22.776,14.989 23.478,15.691 23.478,16.549 L23.478,22.828 C23.478,23.699 22.789,24.388 21.918,24.388 L15.639,24.388 C14.781,24.388 14.079,23.686 14.079,22.828 L14.079,16.549 C14.079,15.691 14.781,14.989 15.639,14.989 L21.918,14.989 Z M21.931,16.562 L15.652,16.562 L15.652,22.841 L21.931,22.841 L21.931,16.562 Z" id="形状结合" fill="#FFFFFF"></path>
            </g>
        </g>
    </g>
</svg>