<?xml version="1.0" standalone="no"?>
<!DOCTYPE svg PUBLIC "-//W3C//DTD SVG 1.1//EN" "http://www.w3.org/Graphics/SVG/1.1/DTD/svg11.dtd">
<svg t="1664884461307" class="icon" viewBox="0 0 1024 1024" version="1.1" xmlns="http://www.w3.org/2000/svg" p-id="2942" xmlns:xlink="http://www.w3.org/1999/xlink" width="200" height="200">
	<path d="M961.5 531.9h-34.2C909 421.4 838.7 326.5 739.8 268.1c-37.2 50.4-96.8 83.2-164.1 83.2-89.9 0-166.3-58.5-193.4-139.3l-102.6-77.7c-12.7-9.6-24.3-4.1-26.1 12.2l-15.8 150.8c-53.7 41.4-95.6 94.8-121.2 155.7H48.8C22 452.8 0 474.8 0 501.7v148.4C0 677 22 699 48.8 699h57.7c28.4 86.2 89.3 159.7 169.9 208.6v94.5c0 12.1 9.9 21.9 21.9 21.9h107.4c12 0 21.9-9.9 21.9-21.9v-37.6c26.8 4.9 54.6 7.5 83 7.5s56.2-2.6 83-7.5v37.6c0 12.1 9.9 21.9 21.9 21.9h107.4c12 0 21.9-9.9 21.9-21.9v-94.5c101.5-61.6 171.8-162 185.3-277.9h31.4c27 0 48.8-21.9 48.8-48.9s-21.8-48.9-48.8-48.9zM284.3 489c-29.8 0-54.6-20.7-61.4-48.3 8.1 11.4 21.3 18.8 36.3 18.8 24.7 0 44.7-20 44.7-44.7 0-24.7-20-44.7-44.7-44.7-2.1 0-4.2 0.4-6.3 0.6 9.3-5.3 19.9-8.6 31.4-8.6 35 0 63.4 28.4 63.4 63.5 0.1 34.9-28.3 63.4-63.4 63.4z" fill="#5DE4FF" p-id="2943"></path>
	<path d="M575.8 0c-81.2 0-147.2 66-147.2 147.2 0 81.2 66.1 147.2 147.2 147.2s147.1-66 147.1-147.2C722.9 66 656.9 0 575.8 0z m11.9 220.8v25.1h-30.2V223c-18.6-1-36.9-5.7-46.9-10.5l8.5-34c11.9 5.4 28.4 10.8 46.7 10.8 13.5 0 23.1-3.4 23.1-11.4 0-7.6-8-12.3-27.6-17.9-28.9-8.6-49.4-21.1-49.4-46 0-22.3 16.7-40 47-45.6V45.6h30v20.9c18.3 0.5 30.8 3.9 40.3 7.8l-8.5 32.7c-7.2-2.7-20.2-8.3-40-8.3-15.7 0-20.5 5.1-20.5 10.6 0 6.1 9 10.8 31.3 17.9 33.4 10.3 45.6 24.3 45.6 46.7 0 22.9-17.5 41.5-49.4 46.9z" fill="#F79633" p-id="2944"></path>
</svg>